<?xml version="1.0" encoding="UTF-8"?>
<svg id="Capa_1" data-name="Capa 1" xmlns="http://www.w3.org/2000/svg" xmlns:xlink="http://www.w3.org/1999/xlink" viewBox="0 0 205 258.89">
  <defs>
    <style>
      .cls-1 {
        fill: #b51726;
      }

      .cls-1, .cls-2, .cls-3, .cls-4, .cls-5, .cls-6, .cls-7, .cls-8, .cls-9, .cls-10, .cls-11, .cls-12 {
        fill-rule: evenodd;
      }

      .cls-13 {
        font-family: SourceSansRoman-Black, 'Source Sans Variable';
        font-size: 38.12px;
        font-variation-settings: 'wght' 900;
        font-weight: 800;
      }

      .cls-2 {
        fill: #e30f26;
      }

      .cls-3 {
        fill: #ed5e4f;
      }

      .cls-4 {
        fill: #ffd44a;
      }

      .cls-5 {
        fill: #e84a57;
      }

      .cls-6 {
        fill: #9e141c;
      }

      .cls-7 {
        fill: #f29657;
      }

      .cls-8 {
        fill: #f09452;
      }

      .cls-14 {
        fill: url(#Degradado_sin_nombre_9);
      }

      .cls-9 {
        fill: #ffd97d;
      }

      .cls-10 {
        fill: #eb6b45;
      }

      .cls-11 {
        fill: #faba59;
      }

      .cls-12 {
        fill: #e8404f;
      }

      .cls-15 {
        letter-spacing: -.02em;
      }
    </style>
    <linearGradient id="Degradado_sin_nombre_9" data-name="Degradado sin nombre 9" x1="46.4" y1="223.21" x2="157.42" y2="223.21" gradientUnits="userSpaceOnUse">
      <stop offset=".19" stop-color="#b51726"/>
      <stop offset=".76" stop-color="#faba59"/>
    </linearGradient>
  </defs>
  <polygon class="cls-5" points="154.09 84.09 180.01 58.84 167.97 61.1 154.09 84.09 154.09 84.09"/>
  <polygon class="cls-4" points="173.64 79.44 167.12 84.58 176.48 82.53 173.64 79.44 173.64 79.44"/>
  <polygon class="cls-9" points="145.73 34.95 157.81 22.86 151.5 21.07 145.73 34.95 145.73 34.95"/>
  <g>
    <polygon class="cls-11" points="120.67 71.26 100.82 116.36 132.55 106.58 177.82 16.12 120.67 71.26 120.67 71.26"/>
    <polygon class="cls-1" points="132.55 106.58 100.82 116.36 86.96 147.88 93.73 152.96 121.14 129.38 132.55 106.58 132.55 106.58"/>
    <polygon class="cls-3" points="121.14 129.38 93.73 152.96 105.07 161.49 121.14 129.38 121.14 129.38"/>
    <polygon class="cls-12" points="105.07 161.49 93.73 152.96 79.24 165.43 105.07 161.49 105.07 161.49"/>
    <polygon class="cls-2" points="79.24 165.43 93.73 152.96 86.96 147.88 79.24 165.43 79.24 165.43"/>
    <polygon class="cls-6" points="79.24 165.43 86.96 147.88 61.27 128.56 65.5 156.78 77.1 165.76 79.24 165.43 79.24 165.43"/>
    <polygon class="cls-8" points="61.27 128.56 86.96 147.88 100.82 116.36 61.27 128.56 61.27 128.56"/>
    <polygon class="cls-10" points="61.27 128.56 100.82 116.36 120.67 71.26 61.27 128.56 61.27 128.56"/>
    <polygon class="cls-6" points="61.27 128.56 120.67 71.26 138.66 30.36 61.27 128.56 61.27 128.56"/>
    <polygon class="cls-2" points="65.03 110.78 74.06 100.79 72.63 85.57 65.03 110.78 65.03 110.78"/>
    <polygon class="cls-7" points="132.55 106.58 121.14 129.38 156.07 99.33 132.55 106.58 132.55 106.58"/>
    <polygon class="cls-10" points="152.16 119.83 125.15 136.47 122.15 145.91 152.16 119.83 152.16 119.83"/>
    <text class="cls-13" transform="translate(15.93 201.04)"><tspan class="cls-15" x="0" y="0">F</tspan><tspan x="19.67" y="0">rías Irvin</tspan></text>
    <g>
      <path class="cls-14" d="M46.4,218.62h1.76l.53,3.54c.1,.8,.21,1.6,.31,2.4h.05c.15-.8,.3-1.61,.45-2.4l.82-3.54h1.46l.82,3.54c.15,.77,.3,1.59,.46,2.4h.05c.1-.81,.21-1.62,.31-2.4l.53-3.54h1.64l-1.35,7.59h-2.16l-.74-3.45c-.12-.59-.22-1.19-.3-1.76h-.05c-.09,.57-.19,1.17-.31,1.76l-.72,3.45h-2.12l-1.41-7.59Z"/>
      <path class="cls-14" d="M59.04,223.33c0-1.87,1.34-3.03,2.72-3.03,1.64,0,2.46,1.2,2.46,2.77,0,.31-.04,.62-.07,.76h-3.46c.15,.84,.73,1.22,1.5,1.22,.44,0,.83-.13,1.25-.38l.57,1.03c-.59,.41-1.36,.65-2.05,.65-1.65,0-2.92-1.11-2.92-3.03Zm3.72-.63c0-.64-.28-1.09-.96-1.09-.54,0-1.01,.36-1.12,1.09h2.08Z"/>
      <path class="cls-14" d="M69.85,225.6h-.04l-.14,.62h-1.34v-8.16h1.71v1.99l-.04,.89c.44-.39,.98-.64,1.53-.64,1.4,0,2.26,1.16,2.26,2.93,0,1.99-1.18,3.13-2.43,3.13-.52,0-1.05-.26-1.51-.76Zm2.18-2.34c0-1.04-.32-1.56-1-1.56-.35,0-.66,.16-.99,.52v2.37c.31,.27,.63,.37,.92,.37,.6,0,1.08-.5,1.08-1.7Z"/>
      <path class="cls-14" d="M82.76,223.33c0-1.89,1.18-3.03,2.4-3.03,.64,0,1.03,.24,1.42,.6l-.06-.88v-1.97h1.71v8.16h-1.4l-.12-.57h-.04c-.41,.41-.98,.71-1.54,.71-1.43,0-2.36-1.14-2.36-3.03Zm3.75,1.11v-2.37c-.3-.27-.64-.37-.96-.37-.55,0-1.04,.51-1.04,1.61s.39,1.64,1.05,1.64c.36,0,.66-.14,.94-.52Z"/>
      <path class="cls-14" d="M92.31,223.33c0-1.87,1.34-3.03,2.72-3.03,1.64,0,2.46,1.2,2.46,2.77,0,.31-.04,.62-.07,.76h-3.46c.15,.84,.73,1.22,1.5,1.22,.44,0,.83-.13,1.25-.38l.57,1.03c-.59,.41-1.36,.65-2.05,.65-1.65,0-2.92-1.11-2.92-3.03Zm3.72-.63c0-.64-.28-1.09-.96-1.09-.54,0-1.01,.36-1.12,1.09h2.08Z"/>
      <path class="cls-14" d="M100.91,220.44h1.72l.75,2.73c.15,.57,.3,1.17,.45,1.78h.05c.15-.6,.3-1.2,.45-1.78l.75-2.73h1.64l-1.88,5.78h-1.97l-1.95-5.78Z"/>
      <path class="cls-14" d="M110.1,223.33c0-1.87,1.34-3.03,2.72-3.03,1.64,0,2.46,1.2,2.46,2.77,0,.31-.04,.62-.07,.76h-3.46c.15,.84,.73,1.22,1.5,1.22,.44,0,.83-.13,1.25-.38l.57,1.03c-.59,.41-1.36,.65-2.05,.65-1.65,0-2.92-1.11-2.92-3.03Zm3.72-.63c0-.64-.28-1.09-.96-1.09-.54,0-1.01,.36-1.12,1.09h2.08Z"/>
      <path class="cls-14" d="M119.38,224.42v-6.36h1.71v6.43c0,.37,.17,.48,.31,.48,.07,0,.11,0,.21-.02l.2,1.26c-.19,.08-.47,.14-.86,.14-1.17,0-1.58-.77-1.58-1.93Z"/>
      <path class="cls-14" d="M125.28,223.33c0-1.92,1.35-3.03,2.81-3.03s2.81,1.11,2.81,3.03-1.35,3.03-2.81,3.03-2.81-1.11-2.81-3.03Zm3.87,0c0-1-.35-1.65-1.06-1.65s-1.06,.65-1.06,1.65,.35,1.64,1.06,1.64,1.06-.65,1.06-1.64Z"/>
      <path class="cls-14" d="M135,220.44h1.4l.12,.57h.04c.45-.4,1.04-.71,1.64-.71,1.4,0,2.25,1.16,2.25,2.94,0,1.98-1.18,3.12-2.43,3.12-.5,0-.96-.22-1.38-.6l.06,.91v1.69h-1.71v-7.92Zm3.71,2.82c0-1.04-.32-1.56-1-1.56-.35,0-.65,.16-.99,.52v2.37c.31,.27,.63,.37,.92,.37,.6,0,1.08-.5,1.08-1.7Z"/>
      <path class="cls-14" d="M144.25,223.33c0-1.87,1.34-3.03,2.72-3.03,1.64,0,2.46,1.2,2.46,2.77,0,.31-.04,.62-.07,.76h-3.46c.15,.84,.73,1.22,1.5,1.22,.44,0,.83-.13,1.25-.38l.57,1.03c-.59,.41-1.36,.65-2.05,.65-1.65,0-2.92-1.11-2.92-3.03Zm3.72-.63c0-.64-.28-1.09-.96-1.09-.54,0-1.01,.36-1.12,1.09h2.08Z"/>
      <path class="cls-14" d="M153.53,220.44h1.4l.12,1.01h.04c.42-.77,1.05-1.15,1.64-1.15,.33,0,.52,.04,.69,.12l-.29,1.48c-.21-.05-.38-.09-.62-.09-.44,0-.96,.28-1.27,1.07v3.35h-1.71v-5.78Z"/>
    </g>
  </g>
</svg>